# xmcd CD database file
#
# Track frame offsets:
#	150
#	22532
#	45972
#	68590
#	92199
#	110193
#	128841
#	149513
#	167523
#	183993
#	206786
#	222608
#
# Disc length: 3243 seconds
#
# Revision: 0
# Processed by: cddbd v1.5.2PL0 Copyright (c) Steve Scherf et al.
# Submitted via: CDex 1.51
#
DISCID=aa0ca90c
DTITLE=Natacha Roth - Way Out South
DYEAR=2008
DGENRE=Jazz
TTITLE0=Sugarcane
TTITLE1=See You There
TTITLE2=Tuna Elekea - Migration Song
TTITLE3=Helpless
TTITLE4=Mariana
TTITLE5=Out Here
TTITLE6=Siyaya - Siya Hamba
TTITLE7=Chains
TTITLE8=So Sweet
TTITLE9=Someone Like You
TTITLE10=Movin'On
TTITLE11=Thank You
EXTD=YEAR: 2008
EXTT0=
EXTT1=
EXTT2=
EXTT3=
EXTT4=
EXTT5=
EXTT6=
EXTT7=
EXTT8=
EXTT9=
EXTT10=
EXTT11=
PLAYORDER=
